<svg xmlns="http://www.w3.org/2000/svg" viewBox="0 0 200 200" width="200" height="200" role="img" aria-label="ザン - 辛口AIキャラ">
  <defs>
    <linearGradient id="zanBg" x1="0" y1="0" x2="1" y2="1">
      <stop offset="0%" stop-color="#1e1b4b"/>
      <stop offset="100%" stop-color="#312e81"/>
    </linearGradient>
    <radialGradient id="zanFace" cx="50%" cy="40%" r="55%">
      <stop offset="0%" stop-color="#e9d5ff"/>
      <stop offset="100%" stop-color="#c4b5fd"/>
    </radialGradient>
    <linearGradient id="zanHair" x1="0" y1="0" x2="0" y2="1">
      <stop offset="0%" stop-color="#312e81"/>
      <stop offset="100%" stop-color="#1e1b4b"/>
    </linearGradient>
    <linearGradient id="bladeGrad" x1="0" y1="0" x2="1" y2="0">
      <stop offset="0%" stop-color="#cbd5e1"/>
      <stop offset="100%" stop-color="#f1f5f9"/>
    </linearGradient>
  </defs>
  <circle cx="100" cy="100" r="98" fill="url(#zanBg)"/>
  <ellipse cx="100" cy="94" rx="60" ry="66" fill="url(#zanFace)" stroke="#7c3aed" stroke-width="2"/>
  <path d="M44 64 Q60 28 100 30 Q140 28 156 64 Q160 86 140 80 Q150 100 132 96 Q140 70 100 64 Q60 70 68 96 Q50 100 60 80 Q40 86 44 64 Z" fill="url(#zanHair)"/>
  <path d="M62 92 L82 88 L88 96 L70 100 Z" fill="#0f172a"/>
  <path d="M118 96 L112 88 L138 92 L130 100 Z" fill="#0f172a"/>
  <ellipse cx="78" cy="100" rx="5" ry="3.5" fill="#a855f7"/>
  <ellipse cx="122" cy="100" rx="5" ry="3.5" fill="#a855f7"/>
  <ellipse cx="78" cy="100" rx="2" ry="3" fill="#1e1b4b"/>
  <ellipse cx="122" cy="100" rx="2" ry="3" fill="#1e1b4b"/>
  <line x1="89" y1="124" x2="111" y2="124" stroke="#1e1b4b" stroke-width="2.5" stroke-linecap="round"/>
  <g transform="translate(150 35) rotate(45)">
    <rect x="0" y="0" width="6" height="80" fill="url(#bladeGrad)" stroke="#475569" stroke-width="0.5"/>
    <rect x="-4" y="80" width="14" height="6" fill="#7c3aed"/>
    <rect x="-2" y="86" width="10" height="14" fill="#1e1b4b"/>
  </g>
  <text x="100" y="180" font-family="-apple-system,system-ui,sans-serif" font-size="16" font-weight="700" text-anchor="middle" fill="#fde68a">ザン</text>
</svg>
